/* XPM */
static const char *bookctrl_xpm[] = {
/* columns rows colors chars-per-pixel */
"16 16 77 1",
"z c #AFD9A9",
"& c #C0CBED",
"W c #247E20",
"4 c #B4B4B4",
"F c #369430",
"- c #6DA4E1",
"+ c #8BB9F0",
"O c #70A8E2",
"2 c #BCBCBC",
"I c #5EB453",
"x c #63B857",
"c c #57B04C",
"b c #8CC883",
"; c #5F99D7",
"H c #57AD50",
"@ c #C9D4F0",
"t c #70C163",
"p c #5FB554",
"Z c #ACD7A5",
"h c #268323",
"# c #C2CDEE",
"D c #7CC072",
"a c #58B14D",
", c #B6B6B6",
"T c #3D9A36",
"N c #58AE51",
"k c #6CBE5F",
"w c #646464",
"9 c #828282",
"U c #5BB250",
"1 c #BEBEBE",
"R c #369330",
"r c #5D5D5D",
"7 c #999999",
". c #95C0F4",
"g c #2A8827",
"E c #2F8C2A",
"  c None",
"d c #48A33F",
"i c #68BB5B",
"V c #68BB5C",
"y c #6DBF60",
": c #508CCD",
"% c #7DB0E9",
"v c #96CC8E",
"q c #6D6D6D",
"e c #B8B8B8",
"J c #55AC4F",
"n c #3F9C38",
"G c #268222",
"L c #64B858",
"$ c #609CD8",
"l c #B1DAAC",
"A c #4EA845",
"= c #518DCE",
"> c #427EC4",
"6 c #A2A2A2",
"< c #B1B1B1",
"B c #247F21",
"3 c #B9B9B9",
"Y c #45A13D",
"u c #6ABD5E",
"X c #8BBAF0",
"m c #2A8726",
"o c #7FB2EA",
"P c #61B655",
"C c #AED8A8",
"K c #237D20",
"s c #50AA47",
"0 c #777777",
"f c #308F2C",
"M c #5AAF53",
"j c #268122",
"S c #88C67F",
"* c #B8C3EA",
"8 c #8E8E8E",
"5 c #ACACAC",
/* pixels */
"                ",
"      .XoO      ",
"      +@#$      ",
"      %&*=      ",
"      -;:>      ",
"                ",
"       ,<       ",
"  1234567890qw  ",
"  e          r  ",
"                ",
"tyui  pasd  fghj",
"klzx  cvbn  mMNB",
"VCZp  ASDF  GHJK",
"LPIU  YTRE  BWKK",
"                ",
"                "
};
