/* XPM */
static const char *find_xpm[] = {
/* columns rows colors chars-per-pixel */
"16 16 92 1",
"l c Black",
"q c #586C82",
"a c #7B91AA",
"k c #030404",
"M c #4E555C",
"9 c #6C7680",
"8 c #444A50",
"* c #8A97A4",
"& c #626B74",
"{ c #303439",
"< c #3A3F45",
"  c #FFFFFF",
"h c #5B6D83",
"e c #748494",
"! c #656F78",
"H c #010101",
"F c #151719",
"V c #33383D",
"J c #4C525A",
"_ c #181B1D",
"P c #8B98A6",
"p c #6D7782",
"m c #667079",
"D c #16181A",
"7 c #484F56",
"; c #34393E",
"O c #93A0AE",
"g c #7D8D9F",
"] c #2D3236",
"S c #191C1E",
"@ c #78838E",
"( c #282B2F",
"R c #464C53",
"c c #646D77",
"5 c #828E9B",
"3 c #A0ACB9",
"L c #AAB4C0",
"s c #94A7BA",
"0 c #5D666E",
") c #212427",
"~ c #67717B",
"G c #0D0E0F",
"C c #2B2F33",
"u c #94A1AF",
"Y c #ADB8C2",
"Q c #2E3337",
"t c #060707",
"U c #798490",
"v c #5B636C",
"r c #0B0B0C",
". c #838F9C",
"4 c #727D87",
"[ c #222528",
"B c #4A5158",
"n c #5E6770",
": c #40464C",
"$ c #68727C",
"T c #0E0F11",
"d c #8EA4B7",
"j c #576371",
"I c #25292C",
"2 c #111315",
"% c #8E9BA8",
"1 c #202225",
", c #707A85",
"i c #A2AEBA",
"/ c #41474D",
"W c #5F6871",
"= c #7D8995",
"+ c #555D65",
"` c #050506",
"z c #96A3B1",
"^ c #08090A",
"b c #262A2E",
"o c #85919D",
"6 c #717B86",
"N c #383D42",
"> c #6A747E",
"E c #6F7883",
"K c #BAC3CC",
"f c #8197B0",
"' c #3B4146",
"| c #090A0B",
"Z c #1D2023",
"y c #909DAB",
"- c #86929F",
"X c #A4B0BC",
"# c #AEB8C3",
"x c #6B757F",
"} c #1B1D20",
"w c #7D91A6",
"A c #141617",
/* pixels */
"                ",
"                ",
"    .Xo Oo+     ",
"    @#+ $%.     ",
"  &*=-; :>,;<12 ",
"345o67890qwe7rt ",
"yuippasdfghj=kl ",
"-ozx$cvb79$cnll ",
"mMNBVCZASD1FGHl ",
" J-KLP; IUYL%T  ",
" REKmWQ 1,Y!~^  ",
" /EK!~()_=Y!$`  ",
" ',#$x]S[=i$xH  ",
" ;{CI)}AT|tkll  ",
"                ",
"                "
};
