/* XPM */
static const char *inbound_xpm[] = {
/* columns rows colors chars-per-pixel */
"16 16 132 2",
"r. c #B6D49C",
"8. c #5D8744",
"$. c #52402A",
"z  c #4A88C8",
"e. c #4C7B31",
"H  c #D6B17F",
"f  c #A3C0E2",
">. c #B4D495",
"i  c #3B73B4",
";  c #E8D3B1",
"<  c #E3C9A1",
"#  c #C48C56",
"N  c #F0F6FF",
"8  c #DEBF8F",
"&. c #503D26",
"   c #FFFFFF",
"3  c #AE7637",
"{  c #D4AE7B",
"y. c #396C1B",
"R  c #CFA468",
"6  c #E1C698",
"d  c #BFD5EE",
"1  c #E1C69D",
"c  c #437BC3",
"9  c #DCBC8A",
"+  c #CC9461",
"p  c #CC9462",
"#. c #53412C",
"o. c #5E8849",
"Z  c #D7B27C",
"M  c #E7F2FF",
"q. c #8CBC65",
"-. c #4C3A22",
"%. c #513E28",
"(  c #285BA0",
"X  c #D49C6D",
",. c #D0E6BA",
"k  c #5194CE",
"u  c #3F78B8",
":  c #E7D1AD",
"I  c #BE864E",
"v  c #3F75C0",
"r  c #4783C1",
"Y  c #D3AC73",
"7. c #5C5C5C",
"y  c #427CBB",
"F  c #CEA265",
"&  c #B77F45",
"|  c #D3A975",
"=. c #4D3B23",
"b  c #678FCB",
"s. c #8DBA64",
"w  c #D6B079",
"t  c #4580BE",
"4. c #646464",
"5  c #E8D5B2",
"1. c #578F2D",
"n  c #4079B9",
"l  c #4D8ECB",
"m  c #BCD3EE",
"u. c #8BBA62",
"@. c #55432E",
"5. c #6C6C6C",
" . c #507D83",
"!  c #D4AD7A",
")  c #B88046",
"Q  c #CA9958",
"/  c #BFD4EB",
"*. c #4E3C25",
"3. c #292929",
"a. c #538C28",
"2. c #376B19",
"S  c #D2AA71",
"-  c #E9D6B3",
"i. c #87BA60",
"x  c #4681C5",
"E  c #CDA063",
",  c #E4CCA6",
";. c #5A6439",
"$  c #C08851",
".. c #729760",
"P  c #2D61A5",
"0  c #DAB885",
"O  c #CF9766",
"+. c #564430",
"A  c #D5AE77",
"a  c #447EBD",
"O. c #366767",
"L  c #EFF6FF",
"@  c #C8905C",
"j  c #549AD0",
"^  c #9BBCE1",
".  c #D79F70",
"w. c #8FBC67",
"=  c #EAD7B6",
"}  c #D3AB78",
"7  c #E0C394",
"2  c #E0C399",
"K  c #C8DAEE",
"h  c #7CB4DD",
"4  c #D09868",
"T  c #D1A86E",
"G  c #CC9E60",
"g  c #366DAF",
"_  c #DEC095",
"C  c #D9B682",
"]  c #D9B687",
"*  c #B37B3F",
"t. c #B2D295",
":. c #81AB61",
"`  c #DCBD90",
"U  c #E1C49B",
"[  c #D7B383",
"6. c #6F6F6F",
"p. c #87B960",
"s  c #C2D7EF",
"B  c #3267AA",
"'  c #DABA8C",
"X. c #668E4F",
"D  c #D0A66B",
"W  c #CB9C5D",
"0. c #B1D692",
"V  c #C38B55",
"~  c #C5D8ED",
"J  c #CADCEF",
"e  c #DDBE92",
"9. c #B1D390",
"o  c #D29A6A",
"q  c #D8B47F",
"<. c #8FBB6A",
">  c #E5CFAA",
"%  c #BC844B",
/* pixels */
"                                ",
"                                ",
". X o O + @ # $ % & *           ",
"X = - ; : > , < 1 2 3           ",
"4 5 6 7 8 9 0 q w e r t y u i   ",
"p                   a s d f g   ",
"@ h j k l z x c v b n m M N B   ",
"V < C Z A S D F G H i J K L P   ",
"I U w Y T R E W Q ! g ~ ^ / (   ",
") _ ` ' ] [ H { } |  ...X.o.O.  ",
"+.@.#.$.%.&.*.=.-.;.:.>.,.<.1.2.",
"  3.4.5.3.6.7.3.  8.9.0.  q.w.2.",
"  3.3.3.3.3.3.3.  e.r.      t.2.",
"                  y.u.i.  p.w.2.",
"                  2.a.s.t.s.a.2.",
"                    2.2.2.2.2.  "
};
