/* XPM */
static const char *login_xpm[] = {
/* columns rows colors chars-per-pixel */
"16 16 143 2",
"1  c #FAB901",
"x. c #0F0F0F",
"h. c #1E1E1E",
"r. c #3C3C3C",
":. c #4B4B4B",
"k  c #FFA336",
"5  c #F7AC00",
"2. c #5A5A5A",
"1. c #696969",
"v  c #787878",
"o  c #FDBD00",
"I  c #9B8553",
"n  c #EBD18B",
">  c #EBD18D",
"v. c #080808",
"j. c #262626",
"a. c #353535",
"   c #FFFFFF",
"+. c #444444",
".. c #626262",
"f  c #B29C5F",
"%. c #717171",
"$. c #808080",
">. c #101010",
"W  c #1F1F1F",
"S  c #2E2E2E",
"<  c #BA9E4B",
";. c #3D3D3D",
"+  c #FBB700",
"X  c #FEC100",
"3. c #4C4C4C",
"_  c #51504E",
",. c #5B5B5B",
"^  c #797979",
"B  c #837E71",
":  c #F1D68F",
".  c #FBDE91",
"y. c #090909",
"4. c #454545",
"Y  c #BF8D22",
"'  c #545454",
"{  c #909090",
"q  c #F4D480",
"V  c #F4AD03",
"`  c #4D4D4D",
"Z  c #F8A10E",
"P  c #6B6B6B",
"i  c #98958D",
"9  c #8E8D8B",
")  c #7A6844",
"c. c #0A0A0A",
"]  c #191919",
"!  c #282828",
"w. c #373737",
",  c #FAD363",
"#. c #646464",
"%  c #FDBF00",
"3  c #FCB828",
"&  c #FDBC00",
"T  c #876E3C",
"5. c #3F3F3F",
"K  c #5D5D5D",
"d  c #6C6C6C",
"E  c #534F4A",
"}  c #7B7B7B",
"A  c #C38F26",
"x  c #F29E00",
"6  c #F5A800",
"0  c #B7AE98",
"R  c #AF7F2A",
"4  c #F8AF00",
"l. c #1A1A1A",
"D  c #292929",
"r  c #FFC24D",
"=. c #474747",
"9. c #565656",
"g  c #F6B509",
"=  c #FBB600",
"Q  c #656565",
"m  c #838078",
"c  c #838383",
"G  c #929292",
"p  c #E7CD89",
"$  c #FBDD8D",
"#  c #FBDD8F",
";  c #FBDD90",
"z. c #131313",
"s. c #313131",
"u. c #404040",
"o. c #4F4F4F",
"j  c #FFB644",
"/  c #6D6D6D",
"-  c #F9B300",
"8. c #0C0C0C",
"t  c #FFB03F",
"O  c #FCBA00",
"t. c #2A2A2A",
"6. c #393939",
"O. c #484848",
"*. c #575757",
"C  c #F4A901",
"z  c #DB9507",
"k. c #050505",
"@. c #141414",
"L  c #232323",
"h  c #FCBD28",
"M  c #323232",
"-. c #414141",
"H  c #505050",
" . c #6E6E6E",
"b  c #827E72",
"F  c #7D7D7D",
"@  c #FAB400",
"8  c #CDBA87",
"w  c #F8C022",
"p. c #3A3A3A",
"~  c #676767",
"|  c #767676",
"N  c #858585",
"u  c #F5A700",
"l  c #F99E10",
"g. c #060606",
"q. c #424242",
"0. c #515151",
"&. c #606060",
"[  c #6F6F6F",
"s  c #797467",
"f. c #2C2C2C",
"7. c #3B3B3B",
"y  c #FAA515",
"X. c #595959",
"J  c #777777",
"e  c #FECB43",
"a  c #F9DC8F",
"7  c #F9DC90",
"2  c #FEC841",
"d. c #070707",
"*  c #FCB900",
"e. c #343434",
"i. c #434343",
"(  c #616161",
"<. c #707070",
"U  c #987E45",
/* pixels */
"      . .       X   o O + @     ",
"    . . . # # $ % & * = -       ",
"    . . ; : > , < 1 2 3 4 5 6   ",
"    . 7 8 9 0 q w e r t y u     ",
"    i p a s d f g h j k l z x   ",
"  c v b n m M N B V C Z A S D   ",
"  F G H J K L P I U Y T R E W   ",
"  J G Q M ! ~ ^ / ( ) _ ` ' ]   ",
"  [ { F F } |  ...X.o.O.+.' @.  ",
"  #.$.%.[ d ~ &.*.o.=.-.;.:.>.  ",
"  ,.<.1.( K 2.' 3.4.5.6.7.;.8.  ",
"  o.( ..9.0.` O.q.;.w.e.r.t.y.  ",
"  u.7...' O.i.5.p.a.s.w.r.y.d.  ",
"    s.f.9.3.-.6.a.a.6.p.y.g.    ",
"      L h.p.4.=.q.w.j.d.k.      ",
"        l.z.x.8.c.v.g.k.        "
};
