/* XPM */
static const char *outbound_xpm[] = {
/* columns rows colors chars-per-pixel */
"16 16 153 2",
"*. c #52402A",
"h. c #66A548",
"z  c #4A88C8",
"z. c #49911B",
";. c #6BA337",
"a. c #A5C88D",
"H  c #D6B17F",
"f  c #A3C0E2",
"o. c #7CAF55",
"/  c #81B35A",
"i  c #3B73B4",
";  c #E8D3B1",
"B. c #5FA143",
"<  c #E3C9A1",
"#  c #C48C56",
"N  c #F0F6FF",
"8  c #DEBF8F",
"u. c #257F00",
"-. c #503D26",
"   c #FFFFFF",
"3  c #AE7637",
"E  c #CFA468",
">. c #ADCD94",
"6  c #E1C698",
"d  c #BFD5EE",
"<. c #90BC74",
"1  c #E1C69D",
"c  c #437BC3",
"9  c #DCBC8A",
"+  c #CC9461",
"Z. c #1E7B03",
"p  c #CC9462",
"&. c #53412C",
"i. c #5B9B29",
"Z  c #D7B27C",
"q. c #89B86B",
"M  c #E7F2FF",
":. c #B0CE96",
"j. c #217C00",
"=. c #513E28",
"_  c #285BA0",
"X  c #D49C6D",
")  c #BBD2E4",
"k  c #5194CE",
"p. c #A9CA90",
"u  c #3F78B8",
"|  c #6FA53D",
"v. c #5E9F3A",
":  c #E7D1AD",
"U  c #BE864E",
"3. c #358608",
".. c #68A134",
"(  c #579828",
"v  c #3F75C0",
"r  c #4783C1",
"b. c #96C180",
"T  c #D3AC73",
"y  c #427CBB",
"F  c #CEA265",
"&  c #B77F45",
"^  c #619D36",
"b  c #678FCB",
"w  c #D6B079",
"t  c #4580BE",
"6. c #646464",
"5  c #E8D5B2",
"O. c #AACB91",
"n  c #4079B9",
"l  c #4D8ECB",
"m  c #BCD3EE",
"k. c #1B7900",
"%. c #55432E",
"c. c #3B8B0F",
"g. c #97C282",
",. c #A8CB90",
"7. c #6C6C6C",
"~  c #D4AD7A",
" . c #6EA338",
"`  c #B88046",
"L  c #C4D8E7",
"M. c #197900",
"!  c #CA9958",
"1. c #A1C78A",
"5. c #292929",
"4. c #2D8301",
"S  c #D2AA71",
"-  c #E9D6B3",
"x  c #4681C5",
"W  c #CDA063",
",  c #E4CCA6",
"$  c #C08851",
"K  c #659F31",
"I  c #2D61A5",
"0  c #DAB885",
"O  c #CF9766",
"N. c #2B8301",
"$. c #564430",
"A. c #157900",
"A  c #D5AE77",
"a  c #447EBD",
"9. c #639F31",
"e. c #80B361",
"P  c #EFF6FF",
"@  c #C8905C",
"+. c #74AB4F",
"V. c #1F7B00",
"j  c #549AD0",
".  c #D79F70",
"=  c #EAD7B6",
"7  c #E0C394",
"2  c #E0C399",
"h  c #7CB4DD",
"4  c #D09868",
"R  c #D1A86E",
"G  c #CC9E60",
"g  c #366DAF",
"d. c #9EC588",
"'  c #DEC095",
"C  c #D9B682",
"{  c #D9B687",
"l. c #519721",
"J  c #69A13C",
"*  c #B37B3F",
"#. c #255895",
"X. c #629D30",
"n. c #62A346",
"s. c #A1C68A",
"]  c #DCBD90",
"Y  c #E1C49B",
"}  c #D7B383",
"8. c #6F6F6F",
"x. c #438F15",
"0. c #8EBA6F",
"s  c #C2D7EF",
"C. c #217D00",
"r. c #82B567",
"B  c #3267AA",
"[  c #DABA8C",
"t. c #98C283",
"D  c #D0A66B",
"Q  c #CB9C5D",
"m. c #1F7D00",
"V  c #C38B55",
"@. c #469019",
"w. c #85B666",
"e  c #DDBE92",
"o  c #D29A6A",
"q  c #D8B47F",
"f. c #85B66A",
"2. c #68A546",
"y. c #5CA03C",
">  c #E5CFAA",
"%  c #BC844B",
/* pixels */
"                                ",
"                                ",
". X o O + @ # $ % & *           ",
"X = - ; : > , < 1 2 3           ",
"4 5 6 7 8 9 0 q w e r t y u i   ",
"p                   a s d f g   ",
"@ h j k l z x c v b n m M N B   ",
"V < C Z A S D F G H J K L P I   ",
"U Y w T R E W Q ! ~ ^ / ( ) _   ",
"` ' ] [ { } |  ...X.o.O.+.@.#.  ",
"$.%.&.*.=.-.;.:.>.O.,.<.1.2.3.4.",
"  5.6.7.5.8.9.>.0.q.w.e.r.t.y.u.",
"  5.5.5.5.5.i.p.a.s.d.f.g.h.j.k.",
"            l.z.x.c.v.b.n.m.M.  ",
"                    N.B.V.M.    ",
"                    C.Z.A.      "
};
