/* XPM */
static const char *stocktaking_xpm[] = {
/* columns rows colors chars-per-pixel */
"16 16 84 1",
"S c #696969",
"p c #787878",
"0 c #969696",
"* c #B4B4B4",
"d c #B4B4B5",
"@ c #C3C3C3",
"  c #FFFFFF",
"T c #8F8F8F",
"v c #ADADAD",
", c #BCBCBC",
"/ c #797979",
"m c #979797",
"L c #979798",
"q c #A6A6A6",
"x c #9C9B9C",
"o c #C4C4C4",
"V c #818181",
"F c #909090",
"e c #9F9F9F",
": c #AEAEAE",
"= c #BDBDBD",
") c #6B6B6B",
"z c #989898",
"Z c #989899",
"3 c #A7A7A7",
"s c #BBBABB",
"Q c #646464",
"a c #737373",
"k c #828282",
"M c #919191",
"w c #A0A0A0",
"t c #AFAFAF",
"% c #BEBEBE",
"7 c #B4B3B4",
". c #CDCDCD",
"W c #6C6C6C",
"J c #7B7B7B",
"y c #999999",
"< c #B7B7B7",
"U c #656565",
"A c #747474",
"~ c #838383",
"h c #929292",
"E c #888788",
"8 c #A1A1A1",
"# c #BFBFBF",
"P c #6D6D6D",
"l c #7C7C7C",
"G c #8B8B8B",
"r c #9A9A9A",
"R c #A9A9A9",
"- c #B8B8B8",
"1 c #C7C7C7",
"u c #939393",
"4 c #A2A2A2",
"6 c #B1B1B1",
"n c #B1B1B3",
"O c #C0C0C0",
"c c #6E6E6E",
"i c #7D7D7D",
"N c #8C8C8C",
"9 c #9B9B9B",
"b c #AAAAAA",
"& c #B9B9B9",
"+ c #C8C8C8",
"K c #767676",
"f c #A3A3A3",
"> c #C1C1C1",
"! c #606060",
"^ c #7E7E7E",
"j c #8D8D8D",
"5 c #9C9C9C",
"D c #ABABAB",
"$ c #BABABA",
"X c #C9C9C9",
"I c #686868",
"C c #777777",
"B c #868686",
"Y c #959595",
"H c #A4A4A4",
"; c #B3B3B3",
"2 c #C7C6C7",
"( c #707070",
"g c #9D9D9D",
/* pixels */
"                ",
"      .XoO      ",
"      +@#$      ",
"      @%&*      ",
"      =-;:      ",
"    >,<12345    ",
"    ,<6<7890    ",
"       qw       ",
"       er       ",
" &*t   yu   ipa ",
" ;sdfg hj klzxc ",
" vbn5mMNBVlCZAS ",
" q89DFGH4JKLPIU ",
" wrYTrR&-fEWIQ! ",
"     ~^/A()     ",
"                "
};
